<?xml version="1.0" encoding="UTF-8" standalone="no"?>
<svg width="26px" height="31px" viewBox="0 0 26 31" version="1.1" xmlns="http://www.w3.org/2000/svg" xmlns:xlink="http://www.w3.org/1999/xlink">
    <!-- Generator: Sketch 48.2 (47327) - http://www.bohemiancoding.com/sketch -->
    <title>fire</title>
    <desc>Created with Sketch.</desc>
    <defs></defs>
    <g id="episode" stroke="none" stroke-width="1" fill="none" fill-rule="evenodd" transform="translate(-203.000000, -206.000000)">
        <rect id="Rectangle-7" fill="#0A97A9" x="0" y="100" width="320.199501" height="576"></rect>
        <g id="side-nav" transform="translate(39.000000, 166.000000)" fill-rule="nonzero">
            <g id="fire" transform="translate(164.488778, 40.000000)">
                <path d="M20.35362,10.2542854 C19.6968908,9.56022008 18.675914,8.62341955 18.2415618,10.7386833 C18.0938439,11.4578921 17.748738,12.0122983 17.4529944,12.4586832 C17.1342315,10.8969319 16.1751731,9.28042518 15.2715088,8.1905001 C14.9333579,7.78272405 13.7335193,6.16168913 13.5030178,3.44977584 C13.4686119,3.04503845 12.971972,2.85497334 12.6613336,3.12797595 C9.69269624,5.73669402 8.06324473,9.3245751 8.00274195,13.3637863 C8.00274195,13.3637863 6.76658934,12.3551305 6.09502685,10.4786695 C5.91419553,9.97335847 5.21438199,9.87695554 4.91076016,10.3237575 C4.85247314,10.4095549 4.79843301,10.4954715 4.74968611,10.5788856 C2.45925856,14.4993509 1.3574677,19.2602137 2.37604415,23.6895052 C4.0791084,31.107228 15.3446907,33.1810231 21.3087393,28.5188273 C27.143904,23.957503 25.2890596,15.4677892 20.35362,10.2542854 Z" id="Shape" fill="#ED694A"></path>
                <g id="Group" transform="translate(1.995012, 3.000000)" fill="#D8553A">
                    <path d="M2.04834722,21.6297267 C1.00688704,17.0662126 2.10927999,12.1657267 4.42300631,8.10663774 C4.36449302,7.97198265 4.3082082,7.8327115 4.25561628,7.68791323 C4.06855202,7.17279826 3.34461718,7.07452495 3.03053006,7.52999566 C2.97023399,7.6174577 2.91439486,7.70504121 2.86396774,7.79007375 C0.494593304,11.786603 -0.645174298,16.6398351 0.408510638,21.1550629 C1.21209742,24.6041041 4.07396403,26.9190542 7.53452539,27.9667158 C4.83489149,26.7192278 2.72077254,24.5807202 2.04834722,21.6297267 Z" id="Shape"></path>
                    <path d="M7.87707327,10.5531453 C8.00498753,6.81614751 9.4219133,3.46525813 11.9579137,0.89108026 C11.940468,0.749318872 11.9275428,0.622559653 11.919202,0.52635141 C11.8828461,0.110238612 11.3878707,-0.0984555315 11.0679259,0.177414317 C8.10183053,2.73555748 6.29396721,6.35606074 6.22908686,10.6288243 L6.78423091,11.0400781 C7.05763251,11.2426377 7.42806813,11.2338308 7.6891813,11.0482777 C7.84498329,10.922308 7.86733167,10.7321996 7.87707327,10.5531453 Z" id="Shape"></path>
                </g>
                <path d="M17.5593411,15.4407334 C17.0739974,14.9201974 16.3193127,14.2175586 15.998296,15.8040317 C15.8891553,16.3433829 15.6339804,16.7592551 15.4155141,17.0940582 C15.1799254,15.9227313 14.4710034,14.7103254 13.8031015,13.8929193 C13.5531619,13.5870954 12.6663627,12.371362 12.4959381,10.3373151 C12.4705006,10.0337296 12.1034749,9.89125375 11.8738606,10.0959834 C9.67965152,12.0524702 8.47522323,14.743479 8.43056915,17.7727999 C8.43056915,17.7727999 7.51685431,17.0163166 7.02054732,15.6089819 C6.88689304,15.2300143 6.36958324,15.1577177 6.14520419,15.4928233 C6.1021515,15.557134 6.0621784,15.6216263 6.02614718,15.6841826 C4.33317247,18.624509 3.51880526,22.1951171 4.27164223,25.5171335 C5.53045611,31.080407 13.8571792,32.6357835 18.2654298,29.1391055 C22.5783363,25.7181727 21.2073637,19.3509241 17.5593411,15.4407334 Z" id="Shape" fill="#F4A32C"></path>
                <path d="M5.66325193,25.4695432 C5.06093452,22.2846832 5.6847911,18.8672898 7.00747391,16.0215881 C6.90667952,15.8111865 6.81117253,15.5785937 6.72846659,15.3241657 C6.60769143,14.9524919 6.14023033,14.8815273 5.93747277,15.2101833 C5.8985687,15.2732563 5.86244746,15.3365073 5.82988826,15.397919 C4.30010666,18.2816543 3.56426869,21.7835407 4.2444499,25.0415606 C4.77352303,27.5791955 6.68427513,29.265968 8.97755611,30 C7.34820457,29.1289044 6.06531634,27.59842 5.66325193,25.4695432 Z" id="Shape" fill="#E89528"></path>
                <path d="M16.5625771,20.6271594 C16.2199421,20.2801587 15.6870399,19.8116721 15.4604151,20.8693567 C15.3833961,21.2289886 15.203214,21.5061601 15.0489191,21.7293511 C14.8825477,20.9484209 14.3821489,20.1402026 13.9105279,19.5952734 C13.7341358,19.3913866 13.1080271,18.5809042 12.9876487,17.2248967 C12.9696626,17.0224996 12.7105987,16.9274676 12.5484669,17.0640276 C10.9993505,18.3683782 10.1490581,20.1623668 10.1175182,22.18187 C10.1175182,22.18187 9.47239561,21.6775155 9.12205224,20.7393507 C9.0276895,20.4867266 8.6625076,20.4385254 8.50410152,20.6618952 C8.47365364,20.704734 8.44551825,20.7477516 8.42001655,20.7894584 C7.22484076,22.7496784 6.64986396,25.1300646 7.18135296,27.3447557 C8.07005859,31.0536229 13.9487484,32.0905137 17.0609203,29.7594011 C18.1266605,28.9611328 18.7874567,27.8363002 18.921453,26.5920669 C19.1237323,24.7075151 18.341787,22.4279997 16.5625771,20.6271594 Z" id="Shape" fill="#F4D44E"></path>
                <path d="M14.7649938,25.0743497 C14.5936602,24.8758854 14.3272629,24.6080044 14.2139245,25.212816 C14.1754148,25.4184972 14.0853666,25.577024 14.0081742,25.7046649 C13.9249863,25.2580744 13.6747885,24.7958269 13.439003,24.4842165 C13.3507996,24.3675843 13.0377065,23.9040525 12.9775206,23.1286044 C12.9685273,23.0128285 12.8389318,22.9585795 12.7579346,23.0365586 C11.9834167,23.7825275 11.5581957,24.808487 11.5424574,25.963433 C11.5424574,25.963433 11.2199098,25.6750023 11.0447136,25.1384454 C10.9974989,24.9939242 10.8149237,24.966341 10.7357712,25.0941655 C10.7205518,25.1186907 10.7064854,25.143277 10.6938025,25.1671294 C10.0962102,26.2881928 9.80871334,27.6494928 10.0744765,28.9160559 C10.6796785,31.8047053 15.6402826,31.7171241 15.9445555,28.4855504 C16.045557,27.4078495 15.6545797,26.1041623 14.7649938,25.0743497 Z" id="Shape" fill="#EAE9E8"></path>
                <path d="M11.3795991,29.5170302 C11.0812636,28.3791899 11.4039966,27.156219 12.0748309,26.1491459 C12.0890681,26.1277096 12.1049233,26.1056592 12.1219433,26.0836087 C12.2108615,25.9688112 12.4158135,25.9935642 12.4687502,26.1233487 C12.6654187,26.6053876 13.0274983,26.8645265 13.0274983,26.8645265 C13.0420592,26.0119908 13.3674455,25.2380752 13.9650873,24.6173457 C13.8314511,24.4416791 13.4225826,24.0181138 13.3455072,23.129155 C13.3354117,23.0128834 13.1899327,22.9584022 13.0990083,23.0367151 C12.2295641,23.7858777 11.7522273,24.8162297 11.7345601,25.9761204 C11.7345601,25.9761204 11.3724804,25.6864549 11.175812,25.1476622 C11.1228752,25.0025223 10.9178585,24.974821 10.829005,25.1031927 C10.8119203,25.1278229 10.7961299,25.1525145 10.7818926,25.176469 C10.1110583,26.3022706 9.78832532,27.6694602 10.0866608,28.9414458 C10.3627344,30.1204387 11.4969271,30.8290015 12.7508423,31 C12.0744426,30.6847215 11.5545881,30.1854845 11.3795991,29.5170302 Z" id="Shape" fill="#F7E7A1"></path>
                <g id="Group" fill="#D8553A">
                    <path d="M8.10461591,3.96674888 C9.42637279,2.94138117 9.42343895,1.02303587 8.10461591,0 C6.78285903,1.02530942 6.78573175,2.943713 8.10461591,3.96674888 Z" id="Shape"></path>
                    <path d="M23.9470564,12.1962735 C25.2688133,11.1709058 25.2658794,9.25256054 23.9470564,8.22952466 C23.3429294,8.69810762 22.6282333,11.1732377 23.9470564,12.1962735 Z" id="Shape"></path>
                    <path d="M0.536954183,12.9770314 C1.48953596,12.2380135 1.48745783,10.8555247 0.536954183,10.118139 C0.101584275,10.4558475 -0.41354946,12.239704 0.536954183,12.9770314 Z" id="Shape"></path>
                    <path d="M17.0351694,6.82564126 C17.9877512,6.08662332 17.9856731,4.70413453 17.0351694,3.96674888 C16.0825876,4.70570852 16.0847269,6.0883139 17.0351694,6.82564126 Z" id="Shape"></path>
                </g>
                <path d="M10.1672466,17.3618009 C10.3813729,14.7790844 11.3467063,12.4826232 12.967581,10.7318993 C12.951188,10.6050007 12.9373676,10.4747402 12.9265985,10.340812 C12.9018893,10.0340793 12.5453711,9.89012638 12.3223303,10.0969784 C10.6333707,11.6634059 9.54939726,13.6962286 9.15010161,15.9955016 L9.14950332,15.9953182 C9.1198882,16.1658611 9.08315348,16.4142792 9.05994,16.6094561 C9.05999983,16.6096394 9.06005966,16.6097617 9.06017932,16.6099451 C9.01165838,17.017292 8.98353896,17.4319742 8.97755611,17.8534413 C9.02266683,17.8624269 10.0438203,18.3986896 10.1672466,17.3618009 Z" id="Shape" fill="#E89528"></path>
                <g id="Group" transform="translate(6.982544, 17.000000)" fill="#E8C842">
                    <path d="M1.75417127,11.0594545 C1.30035735,8.95490909 1.68685503,6.71066667 2.58473404,4.76612121 C2.41079775,4.52654545 2.22044888,4.20472727 2.07958454,3.80521212 C1.98888346,3.54824242 1.63817261,3.49921212 1.48595522,3.72642424 C1.45677045,3.77 1.42962182,3.81375758 1.40518806,3.85618182 C0.257171504,5.85012121 -0.295117875,8.27145455 0.215399645,10.5242424 C0.615224825,12.2910303 2.06625704,13.461697 3.80321362,13.9635758 C2.7921742,13.304303 2.02738515,12.3284848 1.75417127,11.0594545 Z" id="Shape"></path>
                    <path d="M4.67394401,4.3529697 C4.82437206,3.29690909 5.26411806,2.13333333 5.95634625,1.16054545 C5.88094712,0.885878788 5.82165206,0.575515152 5.79271409,0.230363636 C5.77543769,0.0244848485 5.52653418,-0.0721818182 5.37086151,0.0667272727 C4.44373602,0.893454545 3.77828624,1.91393939 3.40024166,3.06236364 L3.39925444,3.06212121 C3.33977428,3.24254545 3.25567524,3.54145455 3.20470987,3.77739394 C3.20514178,3.77727273 3.20557369,3.77727273 3.2060056,3.77709091 C3.10160681,4.25854545 3.04354577,4.75818182 3.0359565,5.27254545 C3.86843201,5.37460606 4.55708152,5.17212121 4.67394401,4.3529697 Z" id="Shape"></path>
                </g>
            </g>
        </g>
    </g>
</svg>