<?xml version="1.0" encoding="UTF-8" standalone="no"?>
<svg width="26px" height="34px" viewBox="0 0 26 34" version="1.1" xmlns="http://www.w3.org/2000/svg" xmlns:xlink="http://www.w3.org/1999/xlink">
    <!-- Generator: Sketch 48.2 (47327) - http://www.bohemiancoding.com/sketch -->
    <title>popcorn</title>
    <desc>Created with Sketch.</desc>
    <defs></defs>
    <g id="book" stroke="none" stroke-width="1" fill="none" fill-rule="evenodd" transform="translate(-337.000000, -639.000000)">
        <g id="toc" transform="translate(294.000000, 488.000000)" fill="#00BCD4" fill-rule="nonzero">
            <g id="toc-item">
                <g id="popcorn" transform="translate(43.000000, 151.000000)">
                    <path d="M17.3385147,16 C16.4645941,17.2471132 15.0967185,18.0369515 13.5388601,18.0369515 C12.4369603,18.0369515 11.373057,17.5796767 10.5751295,16.8314088 C9.24525043,17.1639723 7.83937824,16.8729792 6.73747841,16 C5.86355786,17.4133949 4.38169257,18.2863741 2.8238342,18.2863741 C2.17789292,18.2863741 1.56994819,18.1616628 1,17.8706697 L2.17789292,29.4272517 C2.44386874,31.9214781 4.07772021,34 6.35751295,34 L17.566494,34 C19.8842832,34 21.5181347,31.9214781 21.746114,29.4272517 L23,16.9145497 C22.3920553,17.2055427 21.7081174,17.3718245 21.0241796,17.3718245 C19.5423143,17.3718245 18.402418,17.039261 17.3385147,16 Z M17.5284974,26.1431871 C17.5284974,27.1408776 16.7685665,27.9722864 15.8566494,27.9722864 L8.10535406,27.9722864 C7.19343696,27.9722864 6.43350604,27.1408776 6.43350604,26.1431871 L6.43350604,23.108545 C6.43350604,22.1108545 7.19343696,21.2794457 8.10535406,21.2794457 L15.8566494,21.2794457 C16.7685665,21.2794457 17.5284974,22.1108545 17.5284974,23.108545 L17.5284974,26.1431871 Z" id="Shape"></path>
                    <path d="M25.3448276,10.0135434 C25.4137931,9.02946839 25.137931,8.00439021 24.5517241,7.22533079 C23.3793103,5.70821509 21.4137931,5.58520571 20.137931,6.9383089 C19.9655172,7.10232141 19.8275862,7.30733705 19.6896552,7.51235268 C19.4482759,7.47134956 19.2413793,7.43034643 19,7.47134956 C19.4827586,8.2914121 19.7241379,9.23448402 19.7586207,10.2595622 C20.1724138,11.0796247 20.3793103,11.9816935 20.3793103,12.9247655 C20.3793103,13.5808155 20.2758621,14.1958624 20.0689655,14.7699062 C20.4827586,15.2619437 21.1034483,15.9589969 22.8275862,16 C24.5517241,16 25.9655172,14.3598749 26,12.3097186 C25.9655172,11.4486529 25.7241379,10.6695935 25.3448276,10.0135434 Z" id="Shape"></path>
                    <path d="M16.4062582,9.23546236 C15.1160862,7.70580248 12.9531508,7.58177601 11.5491402,8.94606725 C11.359409,9.11143588 11.2076241,9.31814667 11.0558391,9.52485747 C10.0312908,9.31814667 8.96879625,9.60754178 8.1339791,10.434385 C6.72996843,11.8400184 6.61612973,14.1965214 7.86835546,15.7261813 C8.89290379,16.966446 10.5245919,17.2971833 11.8527101,16.6357088 C12.4598498,17.4625519 13.4085057,18 14.5089465,18 C16.4062582,18 17.9620538,16.3463137 18,14.2792057 C18,13.4110204 17.7343764,12.6255194 17.3169678,12.005387 C17.354914,11.0545173 17.0892904,10.0209634 16.4062582,9.23546236 Z" id="Shape"></path>
                    <path d="M6.97706422,15.1465201 C5.28440367,13.0915751 5.53211009,10.0695971 7.55504587,8.2967033 C7.96788991,7.93406593 8.46330275,7.61172161 9,7.41025641 C8.62844037,7.24908425 8.21559633,7.16849817 7.8440367,7.12820513 C7.14220183,6.44322344 6.19266055,6 5.11926606,6 C3.05504587,6 1.36238532,7.65201465 1.36238532,9.66666667 C1.36238532,9.94871795 1.40366972,10.1904762 1.44495413,10.4322344 C0.577981651,11.1172161 0,12.1648352 0,13.3333333 C0,15.3479853 1.69266055,17 3.75688073,17 C5.11926606,16.959707 6.31651376,16.2344322 6.97706422,15.1465201 Z" id="Shape"></path>
                    <path d="M9.31231231,7.06013851 C9.73273273,7.23102242 10.027027,7.57279023 10.1111111,8 C10.3633634,7.95727902 10.6156156,7.95727902 10.8678679,7.95727902 C10.9099099,7.91455805 10.993994,7.82911609 11.036036,7.78639512 C13.012012,5.99211409 15.954955,5.99211409 17.9309309,7.65823218 C18.1831832,7.4446273 18.4774775,7.31646437 18.8138138,7.27374339 C18.8978979,7.27374339 19.024024,7.27374339 19.1081081,7.27374339 C19.1501502,7.23102242 19.2342342,7.14558046 19.2762763,7.10285948 C19.7807808,6.63292874 20.3693694,6.29116092 21,6.03483506 C20.8318318,5.65034627 20.6636637,5.26585748 20.4114114,4.92408966 C20.4954955,3.72790231 20.1171171,2.48899398 19.2762763,1.50641151 C17.6366366,-0.373311475 14.7777778,-0.501474406 12.9279279,1.16464369 C12.6756757,1.37824858 12.4654655,1.63457444 12.2972973,1.8909003 C10.993994,1.63457444 9.56456456,2.01906323 8.47147147,3.0016457 C7.63063063,3.77062329 7.12612613,4.83864771 7,5.90667213 C7.42042042,6.12027702 7.7987988,6.37660288 8.13513514,6.67564972 C8.5975976,6.76109167 8.93393393,6.8892546 9.31231231,7.06013851 Z" id="Shape"></path>
                </g>
            </g>
        </g>
    </g>
</svg>