<?xml version="1.0" encoding="UTF-8" standalone="no"?>
<svg width="25px" height="24px" viewBox="0 0 25 24" version="1.1" xmlns="http://www.w3.org/2000/svg" xmlns:xlink="http://www.w3.org/1999/xlink">
    <!-- Generator: Sketch 48.2 (47327) - http://www.bohemiancoding.com/sketch -->
    <title>Shape</title>
    <desc>Created with Sketch.</desc>
    <defs></defs>
    <g id="header-home" stroke="none" stroke-width="1" fill="none" fill-rule="evenodd" transform="translate(-865.000000, -36.000000)">
        <g id="header" fill="#FFFFFF">
            <rect id="header-bg" x="0" y="0" width="1199.00582" height="100"></rect>
        </g>
        <rect id="search-box" fill="#A7F0F8" x="852.530419" y="23" width="314" height="53.3378673" rx="5"></rect>
        <g id="search" transform="translate(865.530419, 36.000000)" fill="#008CA1" fill-rule="nonzero">
            <path d="M22.9972325,20.1775392 L17.8758639,15.0648002 C17.8486461,15.0376278 17.8167194,15.0186353 17.7882773,14.9933434 C18.7959943,13.4672691 19.3841432,11.6405119 19.3841432,9.67601215 C19.3841432,4.33207264 15.0448383,0 9.69207158,0 C4.33930482,0 0,4.33207264 0,9.67591813 C0,15.0196696 4.33921064,19.3518363 9.6919774,19.3518363 C11.659851,19.3518363 13.4895637,18.7646676 15.0181856,17.7586302 C15.0435198,17.7869308 15.0624498,17.8188044 15.0896676,17.8459768 L20.2111304,22.9589038 C20.9804799,23.726877 22.2277887,23.726877 22.9972325,22.9589038 C23.7664879,22.1908364 23.7664879,20.9456065 22.9972325,20.1775392 Z M9.69207158,15.9975004 C6.19482264,15.9975004 3.35984155,13.1672443 3.35984155,9.67591813 C3.35984155,6.18449793 6.19491682,3.35424181 9.69207158,3.35424181 C13.1891322,3.35424181 16.0242074,6.18459195 16.0242074,9.67591813 C16.0242074,13.1672443 13.1891322,15.9975004 9.69207158,15.9975004 Z" id="Shape"></path>
        </g>
    </g>
</svg>